<?xml version="1.0" standalone="no"?>
<!DOCTYPE svg PUBLIC "-//W3C//DTD SVG 20010904//EN"
 "http://www.w3.org/TR/2001/REC-SVG-20010904/DTD/svg10.dtd">
<svg version="1.0" xmlns="http://www.w3.org/2000/svg"
 width="969.000000pt" height="408.000000pt" viewBox="0 0 969.000000 408.000000"
 preserveAspectRatio="xMidYMid meet">

<g transform="translate(0.000000,408.000000) scale(0.100000,-0.100000)"
fill="#000000" stroke="none">
<path d="M1309 3386 c-66 -23 -106 -63 -127 -125 -9 -25 -12 -248 -12 -813 0
-680 2 -783 15 -816 20 -47 50 -79 97 -103 35 -18 63 -19 408 -19 203 0 370
-2 370 -5 0 -3 -16 -45 -36 -95 l-36 -90 -102 0 c-120 0 -146 -12 -146 -64 0
-69 -32 -66 648 -66 599 0 612 0 632 20 23 23 26 58 6 86 -12 16 -30 20 -122
24 l-108 5 -33 75 c-52 122 -88 110 334 110 l366 0 43 25 c26 15 54 43 69 69
l25 43 0 802 c1 724 -1 805 -16 836 -22 46 -74 91 -121 104 -60 17 -2107 14
-2154 -3z m2118 -168 l23 -21 0 -649 0 -648 -1060 0 -1060 0 0 110 0 110 142
0 c122 0 147 -3 184 -20 39 -19 45 -20 77 -7 44 19 67 52 67 98 0 46 -38 95
-80 104 -34 7 -84 -15 -100 -45 -10 -19 -19 -20 -150 -18 l-140 3 0 128 0 127
59 0 c43 0 65 -5 84 -20 36 -28 92 -26 122 5 35 34 35 106 0 140 -30 31 -82
33 -118 5 -19 -15 -40 -20 -86 -20 l-61 0 0 297 c0 291 0 297 22 320 l21 23
1016 0 1015 0 23 -22z"/>
<path d="M1949 2941 c-34 -34 -37 -68 -10 -102 10 -13 80 -78 155 -144 75 -66
135 -123 134 -127 -2 -3 -66 -61 -143 -129 -180 -157 -191 -175 -136 -230 60
-59 82 -47 345 185 150 133 167 156 150 205 -8 22 -174 176 -347 322 -70 59
-104 64 -148 20z"/>
<path d="M2536 2444 c-19 -19 -22 -104 -4 -122 17 -17 419 -17 436 0 7 7 12
36 12 65 0 41 -4 54 -19 63 -12 6 -99 10 -215 10 -164 0 -197 -3 -210 -16z"/>
<path d="M6457 3393 c-4 -3 -7 -89 -7 -190 l0 -185 -40 35 c-59 50 -132 70
-238 65 -68 -3 -100 -10 -143 -31 -106 -51 -180 -159 -201 -292 -28 -182 52
-354 199 -427 64 -31 73 -33 178 -33 96 0 116 3 155 23 25 13 55 33 68 45 l22
20 0 -35 c0 -33 2 -36 38 -42 48 -8 96 -8 116 0 14 5 16 62 16 530 l0 524 -78
0 c-43 0 -82 -3 -85 -7z m-105 -468 c130 -92 130 -308 0 -400 -57 -40 -158
-48 -218 -17 -84 44 -124 113 -124 217 0 150 89 239 232 233 55 -3 75 -9 110
-33z"/>
<path d="M5268 3118 c-134 -13 -237 -87 -300 -216 -31 -63 -33 -72 -33 -177 0
-99 3 -116 27 -168 38 -80 115 -158 191 -193 57 -27 71 -29 182 -29 111 0 125
2 182 29 152 70 245 255 215 426 -41 229 -216 354 -464 328z m135 -169 c185
-51 207 -347 33 -434 -93 -47 -215 -24 -272 51 -29 38 -54 112 -54 160 0 42
27 122 52 153 53 68 149 96 241 70z"/>
<path d="M4400 3106 c-93 -27 -179 -92 -225 -171 -36 -61 -58 -167 -51 -247
10 -107 40 -174 110 -244 87 -87 145 -108 296 -109 132 0 190 16 266 74 75 57
76 62 15 118 -78 70 -78 70 -119 30 -47 -46 -98 -67 -162 -67 -133 0 -224 95
-224 235 0 78 21 130 71 177 81 77 220 76 309 -2 19 -16 40 -30 45 -30 17 0
128 84 129 97 0 21 -104 103 -160 125 -68 26 -231 34 -300 14z"/>
<path d="M6985 3106 c-96 -30 -169 -95 -215 -191 -104 -215 -17 -477 186 -555
146 -56 357 -28 469 64 l30 25 -53 53 c-49 50 -53 52 -75 39 -146 -94 -317
-74 -384 44 -13 22 -23 50 -23 63 l0 22 281 0 281 0 -4 94 c-3 80 -8 102 -36
159 -40 80 -112 148 -188 176 -64 24 -203 28 -269 7z m244 -165 c29 -21 53
-63 65 -113 l6 -28 -190 0 c-145 0 -190 3 -190 13 1 29 41 96 72 120 63 48
175 52 237 8z"/>
<path d="M7460 1715 l0 -485 85 0 85 0 0 485 0 485 -85 0 -85 0 0 -485z"/>
<path d="M6120 2166 c-133 -38 -208 -121 -217 -239 -7 -82 10 -139 54 -188 51
-57 120 -88 240 -110 125 -22 160 -39 179 -86 59 -140 -162 -214 -349 -116
-29 16 -55 29 -59 31 -4 2 -23 -28 -42 -67 l-35 -69 42 -25 c95 -55 163 -72
292 -72 116 0 123 1 187 33 106 52 158 134 158 246 0 154 -91 240 -300 281
-137 28 -180 57 -180 125 0 107 145 141 300 69 39 -18 72 -30 74 -28 2 2 18
33 36 69 l32 64 -25 22 c-14 12 -52 32 -84 44 -72 28 -234 36 -303 16z"/>
<path d="M4137 2164 c-4 -4 -7 -216 -7 -471 l0 -464 93 3 92 3 3 193 2 192
193 -2 192 -3 3 -192 2 -193 90 0 90 0 -2 468 -3 467 -85 0 -85 0 -3 -182 -2
-183 -195 0 -195 0 -2 183 -3 182 -85 3 c-47 1 -89 0 -93 -4z"/>
<path d="M5042 1808 l3 -363 30 -55 c63 -114 196 -177 354 -167 52 3 108 13
143 26 75 29 149 96 179 163 24 52 24 59 27 406 l3 352 -85 0 -85 0 -3 -327
c-3 -316 -4 -329 -25 -369 -33 -62 -91 -87 -187 -82 -61 3 -79 8 -109 31 -20
15 -42 38 -49 50 -10 16 -14 113 -18 357 l-5 335 -88 3 -88 3 3 -363z"/>
<path d="M6624 2157 c-3 -8 -4 -47 -2 -88 l3 -74 138 -3 137 -3 0 -379 0 -380
90 0 90 0 0 380 0 380 140 0 141 0 -3 88 -3 87 -363 3 c-298 2 -363 0 -368
-11z"/>
<path d="M7979 1925 c-102 -33 -192 -122 -221 -218 -7 -23 -13 -85 -13 -137 1
-83 4 -103 29 -157 78 -170 279 -242 482 -173 54 19 127 61 139 81 5 6 -11 30
-38 56 l-45 46 -63 -32 c-99 -50 -209 -43 -272 17 -34 32 -57 73 -57 102 0 20
5 20 256 20 l257 0 -5 83 c-7 138 -77 251 -187 300 -60 27 -196 33 -262 12z
m201 -143 c37 -18 64 -58 75 -109 l7 -33 -172 0 -172 0 7 28 c11 46 45 92 83
112 47 24 126 26 172 2z"/>
<path d="M9370 10 c-16 -5 21 -8 98 -9 75 -1 122 3 122 9 0 12 -183 12 -220 0z"/>
<path d="M9148 3 c7 -3 16 -2 19 1 4 3 -2 6 -13 5 -11 0 -14 -3 -6 -6z"/>
<path d="M9268 3 c6 -2 18 -2 25 0 6 3 1 5 -13 5 -14 0 -19 -2 -12 -5z"/>
</g>
</svg>
